# xmcd CD database file
#
# Track frame offsets:
#	150
#	19162
#	35710
#	52422
#	65692
#	79060
#	97045
#	113542
#	131595
#	147847
#	162805
#	187592
#	203670
#
# Disc length: 2823 seconds
#
# Revision: 2
# Processed by: cddbd v1.5.2PL0 Copyright (c) Steve Scherf et al.
# Submitted via: CDex 1.70beta2
#
DISCID=b10b050d
DTITLE=John Arthur Martinez - Lone Starry Night
DYEAR=2004
DGENRE=Country
TTITLE0=The Man Who Holds the Bow
TTITLE1=Home Made of Stone
TTITLE2=Amarillo By Morning
TTITLE3=A Girl Named Texas
TTITLE4=The Armadillo Song
TTITLE5=If I Didn't Care
TTITLE6=The River of Love/El Rio Amor
TTITLE7=Tonight at Fiesta
TTITLE8=Just Like the Moon
TTITLE9=Trouble Rides a Fast Horse
TTITLE10=Poor a Little Love On It
TTITLE11=Lone Starry Night
TTITLE12=Tonight at Fiesta (Reprise)
EXTD=YEAR: 2004
EXTT0=
EXTT1=
EXTT2=
EXTT3=
EXTT4=
EXTT5=
EXTT6=
EXTT7=
EXTT8=
EXTT9=
EXTT10=
EXTT11=
EXTT12=
PLAYORDER=
